<?xml version="1.0" standalone="no"?><!DOCTYPE svg PUBLIC "-//W3C//DTD SVG 1.1//EN"
        "http://www.w3.org/Graphics/SVG/1.1/DTD/svg11.dtd">
<svg t="1562321131407" class="icon" viewBox="0 0 1024 1024" version="1.1" xmlns="http://www.w3.org/2000/svg" p-id="2840"
     xmlns:xlink="http://www.w3.org/1999/xlink" width="248" height="248">
    <defs>
        <style type="text/css"></style>
    </defs>
    <path d="M708 151.9L513.7 264.1v224.4L708 600.7l194.3-112.2V264.1L708 151.9z m0 280.1c-30.7 0-55.6-24.9-55.6-55.6 0-30.7 24.9-55.6 55.6-55.6s55.6 24.9 55.6 55.6c0 30.7-24.9 55.6-55.6 55.6z"
          fill="#00AE83" p-id="2841"></path>
    <path d="M708 376.3m-23.3 0a23.3 23.3 0 1 0 46.6 0 23.3 23.3 0 1 0-46.6 0Z" fill="#00AE83" p-id="2842"></path>
    <path d="M608.7 436.1h-94.3V316.5h94.3v119.6z m-58.4-36h22.3v-47.6h-22.3v47.6z" fill="#FFFFFF" p-id="2843"></path>
    <path d="M123.7 488.5L318 600.7l194.3-112.2V264.1L318 151.9 123.7 264.1v224.4z m242.5-140c15.4 26.6 6.2 60.6-20.4 76-26.6 15.4-60.6 6.2-76-20.4-15.4-26.6-6.2-60.6 20.4-76 26.6-15.3 60.6-6.2 76 20.4z"
          fill="#00AE83" p-id="2844"></path>
    <path d="M297.797661 387.944627a23.3 23.3 0 1 0 40.356783-23.3 23.3 23.3 0 1 0-40.356783 23.3Z" fill="#00AE83"
          p-id="2845"></path>
    <path d="M363 573.9l-47.2-81.7 103.6-59.8 47.2 81.7L363 573.9z m2.1-68.5l11.2 19.3 41.2-23.8-11.2-19.3-41.2 23.8z"
          fill="#FFFFFF" p-id="2846"></path>
    <path d="M707.3 826.5V602.1L513 489.9 318.7 602.1v224.4L513 938.7l194.3-112.2z m-242.5-140c15.4-26.6 49.4-35.7 76-20.4 26.6 15.4 35.7 49.4 20.4 76-15.4 26.6-49.4 35.7-76 20.4-26.6-15.3-35.8-49.4-20.4-76z"
          fill="#00AE83" p-id="2847"></path>
    <path d="M501.304235 734.507124a23.3 23.3 0 1 0 23.3-40.356784 23.3 23.3 0 1 0-23.3 40.356784Z" fill="#00AE83"
          p-id="2848"></path>
    <path d="M614.5 658.2l-103.6-59.8 47.2-81.7 103.6 59.8-47.2 81.7z m-54.4-73l41.2 23.8 11.2-19.3-41.2-23.8-11.2 19.3z"
          fill="#FFFFFF" p-id="2849"></path>
</svg>